#N canvas 0 50 450 300 10;
#X obj 147 159 metro \$1;
#X obj 147 121 loadbang;
#X msg 147 140 1;
#X obj 147 179 outlet;
#X obj 131 102 inlet;
#X obj 212 126 inlet;
#X obj 212 146 t b;
#X connect 0 0 3 0;
#X connect 1 0 2 0;
#X connect 2 0 0 0;
#X connect 4 0 0 0;
#X connect 5 0 6 0;
#X connect 5 0 0 1;
#X connect 6 0 2 0;
