#N canvas 0 50 1477 741 10;
#X obj 62 42 inlet~;
#X obj 62 65 delwrite~ \$0_d 10000;
#X obj 66 171 delread~ \$0_d 0.1;
#X obj 66 194 *~ 0.5;
#X obj 66 217 throw~ \$0_o;
#X obj 302 268 catch~ \$0_o;
#X obj 302 291 outlet~;
#X obj 176 217 throw~ \$0_o;
#X obj 176 171 delread~ \$0_d 1000.1;
#X obj 176 194 *~ 0.25;
#X obj 304 217 throw~ \$0_o;
#X obj 432 217 throw~ \$0_o;
#X obj 560 217 throw~ \$0_o;
#X obj 304 171 delread~ \$0_d 1500.1;
#X obj 432 171 delread~ \$0_d 2000.1;
#X obj 560 171 delread~ \$0_d 2500.1;
#X obj 304 194 *~ 0.125;
#X obj 432 194 *~ 0.075;
#X obj 560 194 *~ 0.035;
#X obj 342 86 inlet;
#X obj 342 105 * 1;
#X obj 378 105 * 2;
#X obj 342 124 + 0.1;
#X obj 378 124 + 0.1;
#X obj 414 124 + 0.1;
#X obj 450 124 + 0.1;
#X obj 414 105 * 3;
#X obj 450 105 * 4;
#X text 379 83 init 500;
#X connect 0 0 1 0;
#X connect 2 0 3 0;
#X connect 3 0 4 0;
#X connect 5 0 6 0;
#X connect 8 0 9 0;
#X connect 9 0 7 0;
#X connect 13 0 16 0;
#X connect 14 0 17 0;
#X connect 15 0 18 0;
#X connect 16 0 10 0;
#X connect 17 0 11 0;
#X connect 18 0 12 0;
#X connect 19 0 20 0;
#X connect 19 0 21 0;
#X connect 19 0 26 0;
#X connect 19 0 27 0;
#X connect 20 0 22 0;
#X connect 21 0 23 0;
#X connect 22 0 8 0;
#X connect 23 0 13 0;
#X connect 24 0 14 0;
#X connect 25 0 15 0;
#X connect 26 0 24 0;
#X connect 27 0 25 0;
