#N canvas 442 179 872 401 10;
#X obj 194 144 inlet~;
#X obj 194 166 +~ 1;
#X obj 194 188 /~ 2;
#X obj 194 210 *~ 8;
#X obj 240 178 inlet;
#X obj 194 231 round~ 1;
#X obj 194 253 /~ 8;
#X obj 194 275 *~ 2;
#X obj 194 297 -~ 1;
#X obj 194 317 outlet~;
#X connect 0 0 1 0;
#X connect 1 0 2 0;
#X connect 2 0 3 0;
#X connect 3 0 5 0;
#X connect 4 0 3 1;
#X connect 4 0 6 1;
#X connect 5 0 6 0;
#X connect 6 0 7 0;
#X connect 7 0 8 0;
#X connect 8 0 9 0;
