#N canvas 0 50 450 300 10;
#X obj 135 96 btoggle;
#X text 133 78 btoggle;
#X floatatom 118 171 5 0 0 0 - - -;
#X obj 59 46 tgl 15 0 empty empty empty 17 7 0 10 -262144 -1 -1 0 1
;
#X text 65 11 btoggle is a blue toggle. Feel free to crack it open
and change its color.;
#X text 88 263 I'm pretty sure I borrowed this patch from someone on
discord;
#X connect 0 0 2 0;
#X connect 3 0 0 0;
