#N canvas 0 50 909 300 10;
#X obj 101 101 tgl 30 0 empty empty empty 17 7 0 10 -262144 -262144
-262144 0 1;
#X msg 200 138 color \$1 \$1 0;
#X obj 188 70 hradio 20 1 0 32 empty empty empty 0 -8 0 10 -262144
-1 -1 18;
#X floatatom 188 95 5 0 0 0 - - -, f 5;
#X obj 200 118 * 18;
#X obj 89 42 inlet;
#X obj 101 136 outlet;
#X connect 0 0 4 0;
#X connect 0 0 6 0;
#X connect 1 0 0 0;
#X connect 2 0 3 0;
#X connect 2 0 4 1;
#X connect 4 0 1 0;
#X connect 5 0 0 0;
#X coords 0 -1 1 1 32 32 2 100 100;
