#N canvas -8 -8 1366 725 10;
#X obj 101 101 cnv 15 177 132 empty empty MidiCC-Visualizer 32 8 0
10 -1 -262144 0;
#X obj 328 42 ctlin 1;
#X obj 102 121 vsl 10 40 0 127 0 0 empty empty empty 0 -9 0 10 -33289
-262144 -1 0 1;
#X obj 113 121 vsl 10 40 0 127 0 0 empty empty empty 0 -9 0 10 -33289
-262144 -1 0 1;
#X obj 124 121 vsl 10 40 0 127 0 0 empty empty empty 0 -9 0 10 -33289
-262144 -1 0 1;
#X obj 135 121 vsl 10 40 0 127 0 0 empty empty empty 0 -9 0 10 -33289
-262144 -1 0 1;
#X obj 102 167 vsl 10 40 0 127 0 0 empty empty empty 0 -9 0 10 -33289
-262144 -1 0 1;
#X obj 113 167 vsl 10 40 0 127 0 0 empty empty empty 0 -9 0 10 -33289
-262144 -1 0 1;
#X obj 124 167 vsl 10 40 0 127 0 0 empty empty empty 0 -9 0 10 -33289
-262144 -1 0 1;
#X obj 135 167 vsl 10 40 0 127 0 0 empty empty empty 0 -9 0 10 -33289
-262144 -1 0 1;
#X obj 378 42 ctlin 2;
#X obj 428 42 ctlin 3;
#X obj 478 42 ctlin 4;
#X obj 325 145 ctlin 5;
#X obj 375 145 ctlin 6;
#X obj 425 145 ctlin 7;
#X obj 475 145 ctlin 8;
#X obj 146 121 vsl 10 40 0 127 0 0 empty empty empty 0 -9 0 10 -66577
-262144 -1 0 1;
#X obj 157 121 vsl 10 40 0 127 0 0 empty empty empty 0 -9 0 10 -66577
-262144 -1 0 1;
#X obj 168 121 vsl 10 40 0 127 0 0 empty empty empty 0 -9 0 10 -66577
-262144 -1 0 1;
#X obj 179 121 vsl 10 40 0 127 0 0 empty empty empty 0 -9 0 10 -66577
-262144 -1 0 1;
#X obj 146 167 vsl 10 40 0 127 0 0 empty empty empty 0 -9 0 10 -66577
-262144 -1 0 1;
#X obj 157 167 vsl 10 40 0 127 0 0 empty empty empty 0 -9 0 10 -66577
-262144 -1 0 1;
#X obj 168 167 vsl 10 40 0 127 0 0 empty empty empty 0 -9 0 10 -66577
-262144 -1 0 1;
#X obj 179 167 vsl 10 40 0 127 0 0 empty empty empty 0 -9 0 10 -66577
-262144 -1 0 1;
#X obj 325 71 ctlin 9;
#X obj 375 71 ctlin 10;
#X obj 430 71 ctlin 11;
#X obj 485 71 ctlin 12;
#X obj 319 166 ctlin 13;
#X obj 374 166 ctlin 14;
#X obj 429 166 ctlin 15;
#X obj 484 166 ctlin 16;
#X obj 190 121 vsl 10 40 0 127 0 0 empty empty empty 0 -9 0 10 -33289
-262144 -1 0 1;
#X obj 201 121 vsl 10 40 0 127 0 0 empty empty empty 0 -9 0 10 -33289
-262144 -1 0 1;
#X obj 212 121 vsl 10 40 0 127 0 0 empty empty empty 0 -9 0 10 -33289
-262144 -1 0 1;
#X obj 223 121 vsl 10 40 0 127 0 0 empty empty empty 0 -9 0 10 -33289
-262144 -1 0 1;
#X obj 190 167 vsl 10 40 0 127 0 0 empty empty empty 0 -9 0 10 -33289
-262144 -1 0 1;
#X obj 201 167 vsl 10 40 0 127 0 0 empty empty empty 0 -9 0 10 -33289
-262144 -1 0 1;
#X obj 212 167 vsl 10 40 0 127 0 0 empty empty empty 0 -9 0 10 -33289
-262144 -1 0 1;
#X obj 223 167 vsl 10 40 0 127 0 0 empty empty empty 0 -9 0 10 -33289
-262144 -1 0 1;
#X obj 234 121 vsl 10 40 0 127 0 0 empty empty empty 0 -9 0 10 -66577
-262144 -1 0 1;
#X obj 245 121 vsl 10 40 0 127 0 0 empty empty empty 0 -9 0 10 -66577
-262144 -1 0 1;
#X obj 256 121 vsl 10 40 0 127 0 0 empty empty empty 0 -9 0 10 -66577
-262144 -1 0 1;
#X obj 267 121 vsl 10 40 0 127 0 0 empty empty empty 0 -9 0 10 -66577
-262144 -1 0 1;
#X obj 234 167 vsl 10 40 0 127 0 0 empty empty empty 0 -9 0 10 -66577
-262144 -1 0 1;
#X obj 245 167 vsl 10 40 0 127 0 0 empty empty empty 0 -9 0 10 -66577
-262144 -1 0 1;
#X obj 256 167 vsl 10 40 0 127 0 0 empty empty empty 0 -9 0 10 -66577
-262144 -1 0 1;
#X obj 267 167 vsl 10 40 0 127 0 0 empty empty empty 0 -9 0 10 -66577
-262144 -1 0 1;
#X obj 312 94 ctlin 17;
#X obj 372 94 ctlin 18;
#X obj 432 94 ctlin 19;
#X obj 492 94 ctlin 20;
#X obj 317 186 ctlin 21;
#X obj 377 186 ctlin 22;
#X obj 437 186 ctlin 23;
#X obj 497 186 ctlin 24;
#X obj 319 115 ctlin 25;
#X obj 374 115 ctlin 26;
#X obj 434 115 ctlin 27;
#X obj 494 115 ctlin 28;
#X obj 315 209 ctlin 29;
#X obj 375 209 ctlin 30;
#X obj 435 209 ctlin 31;
#X obj 495 209 ctlin 32;
#X obj 641 86 ctlin 33;
#X obj 701 86 ctlin 34;
#X obj 85 643 f;
#X obj 756 86 ctlin 35;
#X obj 816 86 ctlin 36;
#X obj 712 154 ctlin 37;
#X obj 772 154 ctlin 38;
#X obj 827 154 ctlin 39;
#X obj 887 154 ctlin 40;
#X obj 951 86 ctlin 41;
#X obj 1011 86 ctlin 42;
#X obj 1066 86 ctlin 43;
#X obj 1126 86 ctlin 44;
#X obj 1022 154 ctlin 45;
#X obj 1082 154 ctlin 46;
#X obj 1137 154 ctlin 47;
#X obj 1197 154 ctlin 48;
#X obj 641 336 ctlin 49;
#X obj 701 336 ctlin 50;
#X obj 756 336 ctlin 51;
#X obj 816 336 ctlin 52;
#X obj 712 404 ctlin 53;
#X obj 772 404 ctlin 54;
#X obj 827 404 ctlin 55;
#X obj 887 404 ctlin 56;
#X obj 951 336 ctlin 57;
#X obj 1011 336 ctlin 58;
#X obj 1066 336 ctlin 59;
#X obj 1126 336 ctlin 60;
#X obj 1022 404 ctlin 61;
#X obj 1082 404 ctlin 62;
#X obj 1137 404 ctlin 63;
#X obj 1197 404 ctlin 64;
#N canvas 318 256 450 300 supertoggle 0;
#X obj 124 96 inlet;
#X obj 100 100 tgl 10 0 \$0_t \$0_o empty 17 7 0 10 -1 -1 -262144 1
1;
#X msg 151 201 color 22 22 0;
#X msg 59 203 color 14 14 14;
#X obj 102 102 cnv 6 6 6 empty empty empty 20 12 0 14 -1 -66577 0;
#X obj 124 117 sel 0;
#X connect 0 0 5 0;
#X connect 2 0 1 0;
#X connect 3 0 1 0;
#X connect 5 0 2 0;
#X connect 5 1 3 0;
#X coords 0 -1 1 1 10 10 2 100 100;
#X restore 101 211 pd supertoggle;
#N canvas 318 256 450 300 supertoggle 0;
#X obj 124 96 inlet;
#X obj 100 100 tgl 10 0 \$0_t \$0_o empty 17 7 0 10 -1 -1 -262144 0
1;
#X msg 151 201 color 22 22 0;
#X msg 59 203 color 14 14 14;
#X obj 102 102 cnv 6 6 6 empty empty empty 20 12 0 14 -1 -66577 0;
#X obj 124 117 sel 0;
#X connect 0 0 5 0;
#X connect 2 0 1 0;
#X connect 3 0 1 0;
#X connect 5 0 2 0;
#X connect 5 1 3 0;
#X coords 0 -1 1 1 10 10 2 100 100;
#X restore 101 222 pd supertoggle;
#N canvas 318 256 450 300 supertoggle 0;
#X obj 124 96 inlet;
#X obj 100 100 tgl 10 0 \$0_t \$0_o empty 17 7 0 10 -1 -1 -262144 0
1;
#X msg 151 201 color 22 22 0;
#X msg 59 203 color 14 14 14;
#X obj 102 102 cnv 6 6 6 empty empty empty 20 12 0 14 -1 -66577 0;
#X obj 124 117 sel 0;
#X connect 0 0 5 0;
#X connect 2 0 1 0;
#X connect 3 0 1 0;
#X connect 5 0 2 0;
#X connect 5 1 3 0;
#X coords 0 -1 1 1 10 10 2 100 100;
#X restore 112 211 pd supertoggle;
#N canvas 318 256 450 300 supertoggle 0;
#X obj 124 96 inlet;
#X obj 100 100 tgl 10 0 \$0_t \$0_o empty 17 7 0 10 -1 -1 -262144 0
1;
#X msg 151 201 color 22 22 0;
#X msg 59 203 color 14 14 14;
#X obj 102 102 cnv 6 6 6 empty empty empty 20 12 0 14 -1 -66577 0;
#X obj 124 117 sel 0;
#X connect 0 0 5 0;
#X connect 2 0 1 0;
#X connect 3 0 1 0;
#X connect 5 0 2 0;
#X connect 5 1 3 0;
#X coords 0 -1 1 1 10 10 2 100 100;
#X restore 112 222 pd supertoggle;
#N canvas 318 256 450 300 supertoggle 0;
#X obj 124 96 inlet;
#X obj 100 100 tgl 10 0 \$0_t \$0_o empty 17 7 0 10 -1 -1 -262144 0
1;
#X msg 151 201 color 22 22 0;
#X msg 59 203 color 14 14 14;
#X obj 102 102 cnv 6 6 6 empty empty empty 20 12 0 14 -1 -66577 0;
#X obj 124 117 sel 0;
#X connect 0 0 5 0;
#X connect 2 0 1 0;
#X connect 3 0 1 0;
#X connect 5 0 2 0;
#X connect 5 1 3 0;
#X coords 0 -1 1 1 10 10 2 100 100;
#X restore 122 211 pd supertoggle;
#N canvas 318 256 450 300 supertoggle 0;
#X obj 124 96 inlet;
#X obj 100 100 tgl 10 0 \$0_t \$0_o empty 17 7 0 10 -1 -1 -262144 0
1;
#X msg 151 201 color 22 22 0;
#X msg 59 203 color 14 14 14;
#X obj 102 102 cnv 6 6 6 empty empty empty 20 12 0 14 -1 -66577 0;
#X obj 124 117 sel 0;
#X connect 0 0 5 0;
#X connect 2 0 1 0;
#X connect 3 0 1 0;
#X connect 5 0 2 0;
#X connect 5 1 3 0;
#X coords 0 -1 1 1 10 10 2 100 100;
#X restore 122 222 pd supertoggle;
#N canvas 318 256 450 300 supertoggle 0;
#X obj 124 96 inlet;
#X obj 100 100 tgl 10 0 \$0_t \$0_o empty 17 7 0 10 -1 -1 -262144 0
1;
#X msg 151 201 color 22 22 0;
#X msg 59 203 color 14 14 14;
#X obj 102 102 cnv 6 6 6 empty empty empty 20 12 0 14 -1 -66577 0;
#X obj 124 117 sel 0;
#X connect 0 0 5 0;
#X connect 2 0 1 0;
#X connect 3 0 1 0;
#X connect 5 0 2 0;
#X connect 5 1 3 0;
#X coords 0 -1 1 1 10 10 2 100 100;
#X restore 133 211 pd supertoggle;
#N canvas 318 256 450 300 supertoggle 0;
#X obj 124 96 inlet;
#X obj 100 100 tgl 10 0 \$0_t \$0_o empty 17 7 0 10 -1 -1 -262144 0
1;
#X msg 151 201 color 22 22 0;
#X msg 59 203 color 14 14 14;
#X obj 102 102 cnv 6 6 6 empty empty empty 20 12 0 14 -1 -66577 0;
#X obj 124 117 sel 0;
#X connect 0 0 5 0;
#X connect 2 0 1 0;
#X connect 3 0 1 0;
#X connect 5 0 2 0;
#X connect 5 1 3 0;
#X coords 0 -1 1 1 10 10 2 100 100;
#X restore 133 222 pd supertoggle;
#N canvas 318 256 450 300 supertoggle 0;
#X obj 124 96 inlet;
#X obj 100 100 tgl 10 0 \$0_t \$0_o empty 17 7 0 10 -1 -1 -262144 0
1;
#X msg 151 201 color 22 22 0;
#X msg 59 203 color 14 14 14;
#X obj 102 102 cnv 6 6 6 empty empty empty 20 12 0 14 -1 -66577 0;
#X obj 124 117 sel 0;
#X connect 0 0 5 0;
#X connect 2 0 1 0;
#X connect 3 0 1 0;
#X connect 5 0 2 0;
#X connect 5 1 3 0;
#X coords 0 -1 1 1 10 10 2 100 100;
#X restore 146 211 pd supertoggle;
#N canvas 318 256 450 300 supertoggle 0;
#X obj 124 96 inlet;
#X obj 100 100 tgl 10 0 \$0_t \$0_o empty 17 7 0 10 -1 -1 -262144 0
1;
#X msg 151 201 color 22 22 0;
#X msg 59 203 color 14 14 14;
#X obj 102 102 cnv 6 6 6 empty empty empty 20 12 0 14 -1 -66577 0;
#X obj 124 117 sel 0;
#X connect 0 0 5 0;
#X connect 2 0 1 0;
#X connect 3 0 1 0;
#X connect 5 0 2 0;
#X connect 5 1 3 0;
#X coords 0 -1 1 1 10 10 2 100 100;
#X restore 146 222 pd supertoggle;
#N canvas 318 256 450 300 supertoggle 0;
#X obj 124 96 inlet;
#X obj 100 100 tgl 10 0 \$0_t \$0_o empty 17 7 0 10 -1 -1 -262144 0
1;
#X msg 151 201 color 22 22 0;
#X msg 59 203 color 14 14 14;
#X obj 102 102 cnv 6 6 6 empty empty empty 20 12 0 14 -1 -66577 0;
#X obj 124 117 sel 0;
#X connect 0 0 5 0;
#X connect 2 0 1 0;
#X connect 3 0 1 0;
#X connect 5 0 2 0;
#X connect 5 1 3 0;
#X coords 0 -1 1 1 10 10 2 100 100;
#X restore 157 211 pd supertoggle;
#N canvas 318 256 450 300 supertoggle 0;
#X obj 124 96 inlet;
#X obj 100 100 tgl 10 0 \$0_t \$0_o empty 17 7 0 10 -1 -1 -262144 0
1;
#X msg 151 201 color 22 22 0;
#X msg 59 203 color 14 14 14;
#X obj 102 102 cnv 6 6 6 empty empty empty 20 12 0 14 -1 -66577 0;
#X obj 124 117 sel 0;
#X connect 0 0 5 0;
#X connect 2 0 1 0;
#X connect 3 0 1 0;
#X connect 5 0 2 0;
#X connect 5 1 3 0;
#X coords 0 -1 1 1 10 10 2 100 100;
#X restore 157 222 pd supertoggle;
#N canvas 318 256 450 300 supertoggle 0;
#X obj 124 96 inlet;
#X obj 100 100 tgl 10 0 \$0_t \$0_o empty 17 7 0 10 -1 -1 -262144 0
1;
#X msg 151 201 color 22 22 0;
#X msg 59 203 color 14 14 14;
#X obj 102 102 cnv 6 6 6 empty empty empty 20 12 0 14 -1 -66577 0;
#X obj 124 117 sel 0;
#X connect 0 0 5 0;
#X connect 2 0 1 0;
#X connect 3 0 1 0;
#X connect 5 0 2 0;
#X connect 5 1 3 0;
#X coords 0 -1 1 1 10 10 2 100 100;
#X restore 167 211 pd supertoggle;
#N canvas 318 256 450 300 supertoggle 0;
#X obj 124 96 inlet;
#X obj 100 100 tgl 10 0 \$0_t \$0_o empty 17 7 0 10 -1 -1 -262144 0
1;
#X msg 151 201 color 22 22 0;
#X msg 59 203 color 14 14 14;
#X obj 102 102 cnv 6 6 6 empty empty empty 20 12 0 14 -1 -66577 0;
#X obj 124 117 sel 0;
#X connect 0 0 5 0;
#X connect 2 0 1 0;
#X connect 3 0 1 0;
#X connect 5 0 2 0;
#X connect 5 1 3 0;
#X coords 0 -1 1 1 10 10 2 100 100;
#X restore 167 222 pd supertoggle;
#N canvas 318 256 450 300 supertoggle 0;
#X obj 124 96 inlet;
#X obj 100 100 tgl 10 0 \$0_t \$0_o empty 17 7 0 10 -1 -1 -262144 0
1;
#X msg 151 201 color 22 22 0;
#X msg 59 203 color 14 14 14;
#X obj 102 102 cnv 6 6 6 empty empty empty 20 12 0 14 -1 -66577 0;
#X obj 124 117 sel 0;
#X connect 0 0 5 0;
#X connect 2 0 1 0;
#X connect 3 0 1 0;
#X connect 5 0 2 0;
#X connect 5 1 3 0;
#X coords 0 -1 1 1 10 10 2 100 100;
#X restore 178 211 pd supertoggle;
#N canvas 318 256 450 300 supertoggle 0;
#X obj 124 96 inlet;
#X obj 100 100 tgl 10 0 \$0_t \$0_o empty 17 7 0 10 -1 -1 -262144 0
1;
#X msg 151 201 color 22 22 0;
#X msg 59 203 color 14 14 14;
#X obj 102 102 cnv 6 6 6 empty empty empty 20 12 0 14 -1 -66577 0;
#X obj 124 117 sel 0;
#X connect 0 0 5 0;
#X connect 2 0 1 0;
#X connect 3 0 1 0;
#X connect 5 0 2 0;
#X connect 5 1 3 0;
#X coords 0 -1 1 1 10 10 2 100 100;
#X restore 178 222 pd supertoggle;
#N canvas 318 256 450 300 supertoggle 0;
#X obj 124 96 inlet;
#X obj 100 100 tgl 10 0 \$0_t \$0_o empty 17 7 0 10 -1 -1 -262144 0
1;
#X msg 151 201 color 22 22 0;
#X msg 59 203 color 14 14 14;
#X obj 102 102 cnv 6 6 6 empty empty empty 20 12 0 14 -1 -66577 0;
#X obj 124 117 sel 0;
#X connect 0 0 5 0;
#X connect 2 0 1 0;
#X connect 3 0 1 0;
#X connect 5 0 2 0;
#X connect 5 1 3 0;
#X coords 0 -1 1 1 10 10 2 100 100;
#X restore 191 211 pd supertoggle;
#N canvas 318 256 450 300 supertoggle 0;
#X obj 124 96 inlet;
#X obj 100 100 tgl 10 0 \$0_t \$0_o empty 17 7 0 10 -1 -1 -262144 0
1;
#X msg 151 201 color 22 22 0;
#X msg 59 203 color 14 14 14;
#X obj 102 102 cnv 6 6 6 empty empty empty 20 12 0 14 -1 -66577 0;
#X obj 124 117 sel 0;
#X connect 0 0 5 0;
#X connect 2 0 1 0;
#X connect 3 0 1 0;
#X connect 5 0 2 0;
#X connect 5 1 3 0;
#X coords 0 -1 1 1 10 10 2 100 100;
#X restore 191 222 pd supertoggle;
#N canvas 318 256 450 300 supertoggle 0;
#X obj 124 96 inlet;
#X obj 100 100 tgl 10 0 \$0_t \$0_o empty 17 7 0 10 -1 -1 -262144 0
1;
#X msg 151 201 color 22 22 0;
#X msg 59 203 color 14 14 14;
#X obj 102 102 cnv 6 6 6 empty empty empty 20 12 0 14 -1 -66577 0;
#X obj 124 117 sel 0;
#X connect 0 0 5 0;
#X connect 2 0 1 0;
#X connect 3 0 1 0;
#X connect 5 0 2 0;
#X connect 5 1 3 0;
#X coords 0 -1 1 1 10 10 2 100 100;
#X restore 202 211 pd supertoggle;
#N canvas 318 256 450 300 supertoggle 0;
#X obj 124 96 inlet;
#X obj 100 100 tgl 10 0 \$0_t \$0_o empty 17 7 0 10 -1 -1 -262144 0
1;
#X msg 151 201 color 22 22 0;
#X msg 59 203 color 14 14 14;
#X obj 102 102 cnv 6 6 6 empty empty empty 20 12 0 14 -1 -66577 0;
#X obj 124 117 sel 0;
#X connect 0 0 5 0;
#X connect 2 0 1 0;
#X connect 3 0 1 0;
#X connect 5 0 2 0;
#X connect 5 1 3 0;
#X coords 0 -1 1 1 10 10 2 100 100;
#X restore 202 222 pd supertoggle;
#N canvas 318 256 450 300 supertoggle 0;
#X obj 124 96 inlet;
#X obj 100 100 tgl 10 0 \$0_t \$0_o empty 17 7 0 10 -1 -1 -262144 0
1;
#X msg 151 201 color 22 22 0;
#X msg 59 203 color 14 14 14;
#X obj 102 102 cnv 6 6 6 empty empty empty 20 12 0 14 -1 -66577 0;
#X obj 124 117 sel 0;
#X connect 0 0 5 0;
#X connect 2 0 1 0;
#X connect 3 0 1 0;
#X connect 5 0 2 0;
#X connect 5 1 3 0;
#X coords 0 -1 1 1 10 10 2 100 100;
#X restore 212 211 pd supertoggle;
#N canvas 318 256 450 300 supertoggle 0;
#X obj 124 96 inlet;
#X obj 100 100 tgl 10 0 \$0_t \$0_o empty 17 7 0 10 -1 -1 -262144 0
1;
#X msg 151 201 color 22 22 0;
#X msg 59 203 color 14 14 14;
#X obj 102 102 cnv 6 6 6 empty empty empty 20 12 0 14 -1 -66577 0;
#X obj 124 117 sel 0;
#X connect 0 0 5 0;
#X connect 2 0 1 0;
#X connect 3 0 1 0;
#X connect 5 0 2 0;
#X connect 5 1 3 0;
#X coords 0 -1 1 1 10 10 2 100 100;
#X restore 212 222 pd supertoggle;
#N canvas 318 256 450 300 supertoggle 0;
#X obj 124 96 inlet;
#X obj 100 100 tgl 10 0 \$0_t \$0_o empty 17 7 0 10 -1 -1 -262144 0
1;
#X msg 151 201 color 22 22 0;
#X msg 59 203 color 14 14 14;
#X obj 102 102 cnv 6 6 6 empty empty empty 20 12 0 14 -1 -66577 0;
#X obj 124 117 sel 0;
#X connect 0 0 5 0;
#X connect 2 0 1 0;
#X connect 3 0 1 0;
#X connect 5 0 2 0;
#X connect 5 1 3 0;
#X coords 0 -1 1 1 10 10 2 100 100;
#X restore 223 211 pd supertoggle;
#N canvas 318 256 450 300 supertoggle 0;
#X obj 124 96 inlet;
#X obj 100 100 tgl 10 0 \$0_t \$0_o empty 17 7 0 10 -1 -1 -262144 0
1;
#X msg 151 201 color 22 22 0;
#X msg 59 203 color 14 14 14;
#X obj 102 102 cnv 6 6 6 empty empty empty 20 12 0 14 -1 -66577 0;
#X obj 124 117 sel 0;
#X connect 0 0 5 0;
#X connect 2 0 1 0;
#X connect 3 0 1 0;
#X connect 5 0 2 0;
#X connect 5 1 3 0;
#X coords 0 -1 1 1 10 10 2 100 100;
#X restore 223 222 pd supertoggle;
#N canvas 318 256 450 300 supertoggle 0;
#X obj 124 96 inlet;
#X obj 100 100 tgl 10 0 \$0_t \$0_o empty 17 7 0 10 -1 -1 -262144 0
1;
#X msg 151 201 color 22 22 0;
#X msg 59 203 color 14 14 14;
#X obj 102 102 cnv 6 6 6 empty empty empty 20 12 0 14 -1 -66577 0;
#X obj 124 117 sel 0;
#X connect 0 0 5 0;
#X connect 2 0 1 0;
#X connect 3 0 1 0;
#X connect 5 0 2 0;
#X connect 5 1 3 0;
#X coords 0 -1 1 1 10 10 2 100 100;
#X restore 236 211 pd supertoggle;
#N canvas 318 256 450 300 supertoggle 0;
#X obj 124 96 inlet;
#X obj 100 100 tgl 10 0 \$0_t \$0_o empty 17 7 0 10 -1 -1 -262144 0
1;
#X msg 151 201 color 22 22 0;
#X msg 59 203 color 14 14 14;
#X obj 102 102 cnv 6 6 6 empty empty empty 20 12 0 14 -1 -66577 0;
#X obj 124 117 sel 0;
#X connect 0 0 5 0;
#X connect 2 0 1 0;
#X connect 3 0 1 0;
#X connect 5 0 2 0;
#X connect 5 1 3 0;
#X coords 0 -1 1 1 10 10 2 100 100;
#X restore 236 222 pd supertoggle;
#N canvas 318 256 450 300 supertoggle 0;
#X obj 124 96 inlet;
#X obj 100 100 tgl 10 0 \$0_t \$0_o empty 17 7 0 10 -1 -1 -262144 0
1;
#X msg 151 201 color 22 22 0;
#X msg 59 203 color 14 14 14;
#X obj 102 102 cnv 6 6 6 empty empty empty 20 12 0 14 -1 -66577 0;
#X obj 124 117 sel 0;
#X connect 0 0 5 0;
#X connect 2 0 1 0;
#X connect 3 0 1 0;
#X connect 5 0 2 0;
#X connect 5 1 3 0;
#X coords 0 -1 1 1 10 10 2 100 100;
#X restore 247 211 pd supertoggle;
#N canvas 318 256 450 300 supertoggle 0;
#X obj 124 96 inlet;
#X obj 100 100 tgl 10 0 \$0_t \$0_o empty 17 7 0 10 -1 -1 -262144 0
1;
#X msg 151 201 color 22 22 0;
#X msg 59 203 color 14 14 14;
#X obj 102 102 cnv 6 6 6 empty empty empty 20 12 0 14 -1 -66577 0;
#X obj 124 117 sel 0;
#X connect 0 0 5 0;
#X connect 2 0 1 0;
#X connect 3 0 1 0;
#X connect 5 0 2 0;
#X connect 5 1 3 0;
#X coords 0 -1 1 1 10 10 2 100 100;
#X restore 247 222 pd supertoggle;
#N canvas 318 256 450 300 supertoggle 0;
#X obj 124 96 inlet;
#X obj 100 100 tgl 10 0 \$0_t \$0_o empty 17 7 0 10 -1 -1 -262144 0
1;
#X msg 151 201 color 22 22 0;
#X msg 59 203 color 14 14 14;
#X obj 102 102 cnv 6 6 6 empty empty empty 20 12 0 14 -1 -66577 0;
#X obj 124 117 sel 0;
#X connect 0 0 5 0;
#X connect 2 0 1 0;
#X connect 3 0 1 0;
#X connect 5 0 2 0;
#X connect 5 1 3 0;
#X coords 0 -1 1 1 10 10 2 100 100;
#X restore 257 211 pd supertoggle;
#N canvas 318 256 450 300 supertoggle 0;
#X obj 124 96 inlet;
#X obj 100 100 tgl 10 0 \$0_t \$0_o empty 17 7 0 10 -1 -1 -262144 0
1;
#X msg 151 201 color 22 22 0;
#X msg 59 203 color 14 14 14;
#X obj 102 102 cnv 6 6 6 empty empty empty 20 12 0 14 -1 -66577 0;
#X obj 124 117 sel 0;
#X connect 0 0 5 0;
#X connect 2 0 1 0;
#X connect 3 0 1 0;
#X connect 5 0 2 0;
#X connect 5 1 3 0;
#X coords 0 -1 1 1 10 10 2 100 100;
#X restore 257 222 pd supertoggle;
#N canvas 318 256 450 300 supertoggle 0;
#X obj 124 96 inlet;
#X obj 100 100 tgl 10 0 \$0_t \$0_o empty 17 7 0 10 -1 -1 -262144 0
1;
#X msg 151 201 color 22 22 0;
#X msg 59 203 color 14 14 14;
#X obj 102 102 cnv 6 6 6 empty empty empty 20 12 0 14 -1 -66577 0;
#X obj 124 117 sel 0;
#X connect 0 0 5 0;
#X connect 2 0 1 0;
#X connect 3 0 1 0;
#X connect 5 0 2 0;
#X connect 5 1 3 0;
#X coords 0 -1 1 1 10 10 2 100 100;
#X restore 268 211 pd supertoggle;
#N canvas 318 256 450 300 supertoggle 0;
#X obj 124 96 inlet;
#X obj 100 100 tgl 10 0 \$0_t \$0_o empty 17 7 0 10 -1 -1 -262144 0
1;
#X msg 151 201 color 22 22 0;
#X msg 59 203 color 14 14 14;
#X obj 102 102 cnv 6 6 6 empty empty empty 20 12 0 14 -1 -66577 0;
#X obj 124 117 sel 0;
#X connect 0 0 5 0;
#X connect 2 0 1 0;
#X connect 3 0 1 0;
#X connect 5 0 2 0;
#X connect 5 1 3 0;
#X coords 0 -1 1 1 10 10 2 100 100;
#X restore 268 222 pd supertoggle;
#X connect 1 0 2 0;
#X connect 10 0 3 0;
#X connect 11 0 4 0;
#X connect 12 0 5 0;
#X connect 13 0 6 0;
#X connect 14 0 7 0;
#X connect 15 0 8 0;
#X connect 16 0 9 0;
#X connect 25 0 17 0;
#X connect 26 0 18 0;
#X connect 27 0 19 0;
#X connect 28 0 20 0;
#X connect 29 0 21 0;
#X connect 30 0 22 0;
#X connect 31 0 23 0;
#X connect 32 0 24 0;
#X connect 49 0 33 0;
#X connect 50 0 34 0;
#X connect 51 0 35 0;
#X connect 52 0 36 0;
#X connect 53 0 37 0;
#X connect 54 0 38 0;
#X connect 55 0 39 0;
#X connect 56 0 40 0;
#X connect 57 0 41 0;
#X connect 58 0 42 0;
#X connect 59 0 43 0;
#X connect 60 0 44 0;
#X connect 61 0 45 0;
#X connect 62 0 46 0;
#X connect 63 0 47 0;
#X connect 64 0 48 0;
#X connect 65 0 98 0;
#X connect 66 0 100 0;
#X connect 68 0 102 0;
#X connect 69 0 104 0;
#X connect 70 0 99 0;
#X connect 71 0 101 0;
#X connect 72 0 103 0;
#X connect 73 0 105 0;
#X connect 74 0 106 0;
#X connect 75 0 108 0;
#X connect 76 0 110 0;
#X connect 77 0 112 0;
#X connect 78 0 107 0;
#X connect 79 0 109 0;
#X connect 80 0 111 0;
#X connect 81 0 113 0;
#X connect 82 0 114 0;
#X connect 83 0 116 0;
#X connect 84 0 118 0;
#X connect 85 0 120 0;
#X connect 86 0 115 0;
#X connect 87 0 117 0;
#X connect 88 0 119 0;
#X connect 89 0 121 0;
#X connect 90 0 122 0;
#X connect 91 0 124 0;
#X connect 92 0 126 0;
#X connect 93 0 128 0;
#X connect 94 0 123 0;
#X connect 95 0 125 0;
#X connect 96 0 127 0;
#X connect 97 0 129 0;
#X coords 0 -1 1 1 179 134 1 100 100;
