#N canvas 442 179 450 300 10;
#X obj 28 51 osc~ \$1;
#X obj 13 31 inlet~;
#X obj 28 95 +~ 0.5;
#X obj 28 73 *~ 0.24;
#X obj 13 117 *~;
#X obj 13 138 outlet~;
#X obj 101 56 inlet;
#X connect 0 0 3 0;
#X connect 1 0 4 0;
#X connect 2 0 4 1;
#X connect 3 0 2 0;
#X connect 4 0 5 0;
#X connect 6 0 0 0;
