#N canvas -8 -8 1920 1118 10;
#X obj 107 141 cnv 15 100 375 empty empty empty 20 12 0 14 -128992
-66577 0;
#X obj 454 182 mod 12;
#X obj 454 203 sel 0 1 2 3 4 5 6 7 8 9 10 11;
#N canvas 0 50 450 300 supertoggle 0;
#X obj 101 101 tgl 50 0 \$0_ns \$0_nr empty 17 7 0 10 -62784 -62784
-62784 1 1;
#X obj 123 56 inlet;
#X msg 234 104 color 0 0 0;
#X msg 180 27 0;
#X obj 249 61 sel 0 1;
#X msg 331 122 color 18 18 18;
#X connect 0 0 4 0;
#X connect 1 0 0 0;
#X connect 2 0 0 0;
#X connect 3 0 0 0;
#X connect 4 0 2 0;
#X connect 4 1 5 0;
#X connect 5 0 0 0;
#X coords 0 -1 1 1 52 52 2 100 100;
#X restore 113 149 pd supertoggle;
#X msg 440 296 0 1 0 0 0 0 0 0;
#X msg 649 221 0 0 0 0 0 0 0 0;
#X msg 546 296 0 0 0 0 0 0 0 0;
#X msg 655 296 1 1 1 0 1 1 1 0;
#X msg 761 296 1 1 1 0 1 1 1 1;
#X msg 482 328 1 1 1 0 1 1 0 0;
#X msg 588 328 1 1 1 0 1 0 0 0;
#X msg 697 328 1 1 1 0 0 1 0 0;
#X msg 803 328 1 1 1 0 0 0 0 0;
#X msg 836 357 1 0 0 0 0 0 0 0;
#X msg 730 357 1 0 0 0 1 0 0 0;
#X msg 621 357 1 1 0 0 0 0 0 0;
#X msg 515 357 1 1 1 1 0 0 0 0;
#X obj 557 130 notein;
#X obj 552 151 stripnote;
#X obj 706 168 ctlin 2;
#X obj 706 187 sel 0;
#X obj 422 494 s \$0_fingervis;
#X obj 77 70 r \$0_fingervis;
#X obj 410 76 inlet;
#X obj 77 91 unpack 0 0 0 0 0 0 0 0;
#N canvas 0 50 450 300 supertoggle 0;
#X obj 101 101 tgl 50 0 \$0_ns \$0_nr empty 17 7 0 10 -62784 -62784
-62784 1 1;
#X obj 123 56 inlet;
#X msg 234 104 color 0 0 0;
#X msg 180 27 0;
#X obj 249 61 sel 0 1;
#X msg 331 122 color 18 18 18;
#X connect 0 0 4 0;
#X connect 1 0 0 0;
#X connect 2 0 0 0;
#X connect 3 0 0 0;
#X connect 4 0 2 0;
#X connect 4 1 5 0;
#X connect 5 0 0 0;
#X coords 0 -1 1 1 52 52 2 100 100;
#X restore 113 209 pd supertoggle;
#N canvas 0 50 450 300 supertoggle 0;
#X obj 101 101 tgl 50 0 \$0_ns \$0_nr empty 17 7 0 10 -62784 -62784
-62784 1 1;
#X obj 123 56 inlet;
#X msg 234 104 color 0 0 0;
#X msg 180 27 0;
#X obj 249 61 sel 0 1;
#X msg 331 122 color 18 18 18;
#X connect 0 0 4 0;
#X connect 1 0 0 0;
#X connect 2 0 0 0;
#X connect 3 0 0 0;
#X connect 4 0 2 0;
#X connect 4 1 5 0;
#X connect 5 0 0 0;
#X coords 0 -1 1 1 52 52 2 100 100;
#X restore 113 269 pd supertoggle;
#N canvas 0 50 450 300 supertoggle 0;
#X obj 101 101 tgl 30 0 \$0_ns \$0_nr empty 17 7 0 10 -262144 -262144
-262144 0 1;
#X obj 123 56 inlet;
#X msg 234 104 color 0 0 0;
#X msg 180 27 0;
#X obj 249 61 sel 0 1;
#X msg 331 122 color 18 18 18;
#X connect 0 0 4 0;
#X connect 1 0 0 0;
#X connect 2 0 0 0;
#X connect 3 0 0 0;
#X connect 4 0 2 0;
#X connect 4 1 5 0;
#X connect 5 0 0 0;
#X coords 0 -1 1 1 32 32 2 100 100;
#X restore 171 299 pd supertoggle;
#N canvas 0 50 450 300 supertoggle 0;
#X obj 101 101 tgl 50 0 \$0_ns \$0_nr empty 17 7 0 10 -262144 -262144
-262144 0 1;
#X obj 123 56 inlet;
#X msg 234 104 color 0 0 0;
#X msg 180 27 0;
#X obj 249 61 sel 0 1;
#X msg 331 122 color 18 18 18;
#X connect 0 0 4 0;
#X connect 1 0 0 0;
#X connect 2 0 0 0;
#X connect 3 0 0 0;
#X connect 4 0 2 0;
#X connect 4 1 5 0;
#X connect 5 0 0 0;
#X coords 0 -1 1 1 52 52 2 100 100;
#X restore 113 329 pd supertoggle;
#N canvas 0 50 450 300 supertoggle 0;
#X obj 101 101 tgl 50 0 \$0_ns \$0_nr empty 17 7 0 10 -262144 -262144
-262144 0 1;
#X obj 123 56 inlet;
#X msg 234 104 color 0 0 0;
#X msg 180 27 0;
#X obj 249 61 sel 0 1;
#X msg 331 122 color 18 18 18;
#X connect 0 0 4 0;
#X connect 1 0 0 0;
#X connect 2 0 0 0;
#X connect 3 0 0 0;
#X connect 4 0 2 0;
#X connect 4 1 5 0;
#X connect 5 0 0 0;
#X coords 0 -1 1 1 52 52 2 100 100;
#X restore 113 389 pd supertoggle;
#N canvas 0 50 450 300 supertoggle 0;
#X obj 101 101 tgl 50 0 \$0_ns \$0_nr empty 17 7 0 10 -262144 -262144
-262144 0 1;
#X obj 123 56 inlet;
#X msg 234 104 color 0 0 0;
#X msg 180 27 0;
#X obj 249 61 sel 0 1;
#X msg 331 122 color 18 18 18;
#X connect 0 0 4 0;
#X connect 1 0 0 0;
#X connect 2 0 0 0;
#X connect 3 0 0 0;
#X connect 4 0 2 0;
#X connect 4 1 5 0;
#X connect 5 0 0 0;
#X coords 0 -1 1 1 52 52 2 100 100;
#X restore 113 449 pd supertoggle;
#N canvas 0 50 450 300 supertoggle 0;
#X obj 101 101 tgl 30 0 \$0_ns \$0_nr empty 17 7 0 10 -262144 -262144
-262144 0 1;
#X obj 123 56 inlet;
#X msg 234 104 color 0 0 0;
#X msg 180 27 0;
#X obj 249 61 sel 0 1;
#X msg 331 122 color 18 18 18;
#X connect 0 0 4 0;
#X connect 1 0 0 0;
#X connect 2 0 0 0;
#X connect 3 0 0 0;
#X connect 4 0 2 0;
#X connect 4 1 5 0;
#X connect 5 0 0 0;
#X coords 0 -1 1 1 32 32 2 100 100;
#X restore 171 479 pd supertoggle;
#X connect 1 0 2 0;
#X connect 2 0 4 0;
#X connect 2 1 6 0;
#X connect 2 2 7 0;
#X connect 2 3 8 0;
#X connect 2 4 9 0;
#X connect 2 5 10 0;
#X connect 2 6 11 0;
#X connect 2 7 12 0;
#X connect 2 8 16 0;
#X connect 2 9 15 0;
#X connect 2 10 14 0;
#X connect 2 11 13 0;
#X connect 2 12 5 0;
#X connect 4 0 21 0;
#X connect 5 0 21 0;
#X connect 6 0 21 0;
#X connect 7 0 21 0;
#X connect 8 0 21 0;
#X connect 9 0 21 0;
#X connect 10 0 21 0;
#X connect 11 0 21 0;
#X connect 12 0 21 0;
#X connect 13 0 21 0;
#X connect 14 0 21 0;
#X connect 15 0 21 0;
#X connect 16 0 21 0;
#X connect 17 0 18 0;
#X connect 17 1 18 1;
#X connect 18 0 1 0;
#X connect 19 0 20 0;
#X connect 20 0 5 0;
#X connect 22 0 24 0;
#X connect 23 0 1 0;
#X connect 24 0 3 0;
#X connect 24 1 25 0;
#X connect 24 2 26 0;
#X connect 24 3 27 0;
#X connect 24 4 28 0;
#X connect 24 5 29 0;
#X connect 24 6 30 0;
#X connect 24 7 31 0;
#X coords 0 -1 1 1 102 377 2 106 140;
