#N canvas 0 50 754 443 10;
#X obj 101 101 cnv 15 140 90 empty empty empty 20 12 0 14 -99865 -66577
0;
#X obj 266 52 notein;
#X obj 266 73 stripnote;
#X obj 266 94 outlet;
#X obj 329 54 ctlin 2;
#X obj 329 97 outlet;
#X obj 389 61 ctlin 16;
#X obj 389 102 outlet;
#N canvas 0 50 450 300 notevis 0;
#X obj 101 201 cnv 15 130 50 empty empty empty 20 12 0 14 -233017 -66577
0;
#X obj 134 62 inlet;
#X obj 134 85 mod 12;
#X obj 44 168 == 0;
#N canvas 0 50 450 528 stoggle 0;
#X obj 151 80 inlet;
#X obj 101 201 tgl 14 0 \$0_foo \$0_unused empty 17 7 0 10 -262144
-262144 -262144 0 1;
#X msg 152 126 color 0 0 0;
#X obj 151 103 sel 0 1;
#X msg 236 132 color 18 18 18;
#X connect 0 0 3 0;
#X connect 2 0 1 0;
#X connect 3 0 2 0;
#X connect 3 1 4 0;
#X connect 4 0 1 0;
#X coords 0 -1 1 1 16 16 2 100 200;
#X restore 107 228 pd stoggle;
#N canvas 0 50 450 528 stoggle 0;
#X obj 151 80 inlet;
#X obj 101 201 tgl 14 0 \$0_foo \$0_unused empty 17 7 0 10 -128992
-128992 -128992 0 1;
#X obj 151 103 sel 0 1;
#X msg 236 132 color 18 18 18;
#X msg 152 126 color 11 11 11;
#X connect 0 0 2 0;
#X connect 2 0 4 0;
#X connect 2 1 3 0;
#X connect 3 0 1 0;
#X connect 4 0 1 0;
#X coords 0 -1 1 1 16 16 2 100 200;
#X restore 116 211 pd stoggle;
#X obj 74 168 == 1;
#X obj 104 168 == 2;
#X obj 134 168 == 3;
#X obj 164 168 == 4;
#X obj 194 168 == 5;
#X obj 224 168 == 6;
#X obj 254 168 == 7;
#X obj 284 168 == 8;
#X obj 314 168 == 9;
#X obj 344 168 == 10;
#X obj 380 168 == 11;
#X obj 204 71 inlet;
#X obj 134 108 f;
#X obj 245 74 loadbang;
#N canvas 0 50 450 528 stoggle 0;
#X obj 151 80 inlet;
#X obj 101 201 tgl 14 0 \$0_foo \$0_unused empty 17 7 0 10 -262144
-262144 -262144 0 1;
#X msg 152 126 color 0 0 0;
#X obj 151 103 sel 0 1;
#X msg 236 132 color 18 18 18;
#X connect 0 0 3 0;
#X connect 2 0 1 0;
#X connect 3 0 2 0;
#X connect 3 1 4 0;
#X connect 4 0 1 0;
#X coords 0 -1 1 1 16 16 2 100 200;
#X restore 124 228 pd stoggle;
#N canvas 0 50 450 528 stoggle 0;
#X obj 151 80 inlet;
#X obj 101 201 tgl 14 0 \$0_foo \$0_unused empty 17 7 0 10 -128992
-128992 -128992 0 1;
#X obj 151 103 sel 0 1;
#X msg 236 132 color 18 18 18;
#X msg 152 126 color 11 11 11;
#X connect 0 0 2 0;
#X connect 2 0 4 0;
#X connect 2 1 3 0;
#X connect 3 0 1 0;
#X connect 4 0 1 0;
#X coords 0 -1 1 1 16 16 2 100 200;
#X restore 133 211 pd stoggle;
#N canvas 0 50 450 528 stoggle 0;
#X obj 151 80 inlet;
#X obj 101 201 tgl 14 0 \$0_foo \$0_unused empty 17 7 0 10 -262144
-262144 -262144 0 1;
#X msg 152 126 color 0 0 0;
#X obj 151 103 sel 0 1;
#X msg 236 132 color 18 18 18;
#X connect 0 0 3 0;
#X connect 2 0 1 0;
#X connect 3 0 2 0;
#X connect 3 1 4 0;
#X connect 4 0 1 0;
#X coords 0 -1 1 1 16 16 2 100 200;
#X restore 158 228 pd stoggle;
#N canvas 0 50 450 528 stoggle 0;
#X obj 151 80 inlet;
#X obj 101 201 tgl 14 0 \$0_foo \$0_unused empty 17 7 0 10 -128992
-128992 -128992 0 1;
#X obj 151 103 sel 0 1;
#X msg 236 132 color 18 18 18;
#X msg 152 126 color 11 11 11;
#X connect 0 0 2 0;
#X connect 2 0 4 0;
#X connect 2 1 3 0;
#X connect 3 0 1 0;
#X connect 4 0 1 0;
#X coords 0 -1 1 1 16 16 2 100 200;
#X restore 167 211 pd stoggle;
#N canvas 0 50 450 528 stoggle 0;
#X obj 151 80 inlet;
#X obj 101 201 tgl 14 0 \$0_foo \$0_unused empty 17 7 0 10 -262144
-262144 -262144 0 1;
#X msg 152 126 color 0 0 0;
#X obj 151 103 sel 0 1;
#X msg 236 132 color 18 18 18;
#X connect 0 0 3 0;
#X connect 2 0 1 0;
#X connect 3 0 2 0;
#X connect 3 1 4 0;
#X connect 4 0 1 0;
#X coords 0 -1 1 1 16 16 2 100 200;
#X restore 141 228 pd stoggle;
#N canvas 0 50 450 528 stoggle 0;
#X obj 151 80 inlet;
#X obj 101 201 tgl 14 0 \$0_foo \$0_unused empty 17 7 0 10 -262144
-262144 -262144 0 1;
#X msg 152 126 color 0 0 0;
#X obj 151 103 sel 0 1;
#X msg 236 132 color 18 18 18;
#X connect 0 0 3 0;
#X connect 2 0 1 0;
#X connect 3 0 2 0;
#X connect 3 1 4 0;
#X connect 4 0 1 0;
#X coords 0 -1 1 1 16 16 2 100 200;
#X restore 175 228 pd stoggle;
#N canvas 0 50 450 528 stoggle 0;
#X obj 151 80 inlet;
#X obj 101 201 tgl 14 0 \$0_foo \$0_unused empty 17 7 0 10 -128992
-128992 -128992 0 1;
#X obj 151 103 sel 0 1;
#X msg 236 132 color 18 18 18;
#X msg 152 126 color 11 11 11;
#X connect 0 0 2 0;
#X connect 2 0 4 0;
#X connect 2 1 3 0;
#X connect 3 0 1 0;
#X connect 4 0 1 0;
#X coords 0 -1 1 1 16 16 2 100 200;
#X restore 184 211 pd stoggle;
#N canvas 0 50 450 528 stoggle 0;
#X obj 151 80 inlet;
#X obj 101 201 tgl 14 0 \$0_foo \$0_unused empty 17 7 0 10 -262144
-262144 -262144 0 1;
#X msg 152 126 color 0 0 0;
#X obj 151 103 sel 0 1;
#X msg 236 132 color 18 18 18;
#X connect 0 0 3 0;
#X connect 2 0 1 0;
#X connect 3 0 2 0;
#X connect 3 1 4 0;
#X connect 4 0 1 0;
#X coords 0 -1 1 1 16 16 2 100 200;
#X restore 192 228 pd stoggle;
#N canvas 0 50 450 528 stoggle 0;
#X obj 151 80 inlet;
#X obj 101 201 tgl 14 0 \$0_foo \$0_unused empty 17 7 0 10 -128992
-128992 -128992 0 1;
#X obj 151 103 sel 0 1;
#X msg 236 132 color 18 18 18;
#X msg 152 126 color 11 11 11;
#X connect 0 0 2 0;
#X connect 2 0 4 0;
#X connect 2 1 3 0;
#X connect 3 0 1 0;
#X connect 4 0 1 0;
#X coords 0 -1 1 1 16 16 2 100 200;
#X restore 201 211 pd stoggle;
#N canvas 0 50 450 528 stoggle 0;
#X obj 151 80 inlet;
#X obj 101 201 tgl 14 0 \$0_foo \$0_unused empty 17 7 0 10 -262144
-262144 -262144 0 1;
#X msg 152 126 color 0 0 0;
#X obj 151 103 sel 0 1;
#X msg 236 132 color 18 18 18;
#X connect 0 0 3 0;
#X connect 2 0 1 0;
#X connect 3 0 2 0;
#X connect 3 1 4 0;
#X connect 4 0 1 0;
#X coords 0 -1 1 1 16 16 2 100 200;
#X restore 209 228 pd stoggle;
#X msg 204 94 13;
#X connect 1 0 2 0;
#X connect 2 0 18 0;
#X connect 3 0 4 0;
#X connect 6 0 5 0;
#X connect 7 0 20 0;
#X connect 8 0 21 0;
#X connect 9 0 24 0;
#X connect 10 0 22 0;
#X connect 11 0 23 0;
#X connect 12 0 25 0;
#X connect 13 0 26 0;
#X connect 14 0 27 0;
#X connect 15 0 28 0;
#X connect 16 0 29 0;
#X connect 17 0 30 0;
#X connect 18 0 3 0;
#X connect 18 0 6 0;
#X connect 18 0 7 0;
#X connect 18 0 8 0;
#X connect 18 0 9 0;
#X connect 18 0 10 0;
#X connect 18 0 11 0;
#X connect 18 0 12 0;
#X connect 18 0 13 0;
#X connect 18 0 14 0;
#X connect 18 0 15 0;
#X connect 18 0 16 0;
#X connect 19 0 30 0;
#X connect 30 0 18 0;
#X coords 0 -1 1 1 132 52 1 100 200;
#X restore 105 107 pd notevis;
#X obj 351 142 change;
#X obj 351 163 sel 0;
#X obj 111 162 hsl 120 10 0 127 0 0 empty empty empty -2 -8 0 10 -203904
-1 -1 0 1;
#X obj 111 175 hsl 120 10 0 127 0 0 empty empty empty -2 -8 0 10 -232576
-1 -1 0 1;
#X connect 1 0 2 0;
#X connect 1 1 2 1;
#X connect 2 0 3 0;
#X connect 2 0 8 0;
#X connect 4 0 5 0;
#X connect 4 0 9 0;
#X connect 4 0 11 0;
#X connect 6 0 7 0;
#X connect 6 0 12 0;
#X connect 9 0 10 0;
#X connect 10 0 8 1;
#X coords 0 -1 1 1 142 92 2 100 100;
