#N canvas -8 -8 1366 725 10;
#X obj 18 12 inlet~;
#X obj 33 33 delwrite~ \$0_del 30000;
#X obj 145 97 loadbang;
#X obj 145 118 \$1;
#X obj 145 139 * 1;
#X obj 171 139 * 2;
#X obj 197 139 * 3;
#X obj 223 139 * 4;
#X obj 249 139 * 5;
#X obj 275 139 * 6;
#X obj 301 139 * 7;
#X obj 327 139 * 8;
#X obj 122 177 delread~ \$0_del 500;
#X obj 142 197 delread~ \$0_del 1000;
#X obj 162 217 delread~ \$0_del 1500;
#X obj 182 237 delread~ \$0_del 2000;
#X obj 292 177 delread~ \$0_del 2500;
#X obj 312 197 delread~ \$0_del 3000;
#X obj 331 217 delread~ \$0_del 3500;
#X obj 352 237 delread~ \$0_del 4000;
#X obj 122 276 *~ 0.3;
#X obj 167 276 *~ 0.2;
#X obj 212 276 *~ 0.2;
#X obj 257 276 *~ 0.1;
#X obj 302 276 *~ 0.1;
#X obj 347 276 *~ 0.05;
#X obj 397 276 *~ 0.05;
#X obj 447 276 *~ 0.05;
#X obj 166 324 outlet~;
#X obj 18 276 *~ 0.5;
#X connect 0 0 1 0;
#X connect 0 0 29 0;
#X connect 2 0 3 0;
#X connect 3 0 4 0;
#X connect 3 0 5 0;
#X connect 3 0 11 0;
#X connect 3 0 10 0;
#X connect 3 0 9 0;
#X connect 3 0 8 0;
#X connect 3 0 7 0;
#X connect 3 0 6 0;
#X connect 4 0 12 0;
#X connect 5 0 13 0;
#X connect 6 0 14 0;
#X connect 7 0 15 0;
#X connect 8 0 16 0;
#X connect 9 0 17 0;
#X connect 10 0 18 0;
#X connect 11 0 19 0;
#X connect 12 0 20 0;
#X connect 13 0 21 0;
#X connect 14 0 22 0;
#X connect 15 0 23 0;
#X connect 16 0 24 0;
#X connect 17 0 25 0;
#X connect 18 0 26 0;
#X connect 19 0 27 0;
#X connect 20 0 28 0;
#X connect 21 0 28 0;
#X connect 22 0 28 0;
#X connect 23 0 28 0;
#X connect 24 0 28 0;
#X connect 25 0 28 0;
#X connect 26 0 28 0;
#X connect 27 0 28 0;
#X connect 29 0 28 0;
