#N canvas 442 179 652 419 10;
#X obj 72 32 inlet~;
#X obj 142 36 inlet;
#X obj 142 58 swap 1;
#X obj 142 80 /;
#X obj 142 101 s \$0_pow;
#X obj 311 136 pow~;
#X obj 333 117 r \$0_pow;
#X obj 72 52 s~ \$0_sig;
#X text 73 297 Inlet~ 1 = Signal;
#X text 73 319 Inlet 2 = Amount \, a real number >= 1;
#X text 73 341 Numbers between 0 and 1 do weird things;
#X obj 178 17 loadbang;
#X msg 178 36 2;
#X obj 311 45 r~ \$0_sig;
#X obj 311 97 clip~ 0 1;
#X obj 409 75 *~ -1;
#X obj 409 97 clip~ 0 1;
#X obj 409 139 pow~;
#X obj 409 161 *~ -1;
#X obj 311 188 +~;
#X obj 430 119 r \$0_pow;
#X obj 311 210 outlet~;
#X text 280 245 This does a Nth Root transformation to fatten the sounds
;
#X text 291 269 Sorta like changing a circle to a "super elipse" but
with whatever power you like.;
#X connect 0 0 7 0;
#X connect 1 0 2 0;
#X connect 2 0 3 0;
#X connect 2 1 3 1;
#X connect 3 0 4 0;
#X connect 5 0 19 0;
#X connect 6 0 5 1;
#X connect 11 0 12 0;
#X connect 12 0 2 0;
#X connect 13 0 14 0;
#X connect 13 0 15 0;
#X connect 14 0 5 0;
#X connect 15 0 16 0;
#X connect 16 0 17 0;
#X connect 17 0 18 0;
#X connect 18 0 19 1;
#X connect 19 0 21 0;
#X connect 20 0 17 1;
#X coords 0 0 1 1 122 45 0;
