#N canvas 59 60 563 409 10;
#X obj 11 15 inlet~;
#X obj 11 35 delwrite~ \$0_first 10000;
#X obj 24 166 vd~ \$0_first;
#X obj 66 79 loadbang;
#X obj 60 59 inlet;
#X obj 60 119 s \$0_latency;
#X obj 24 145 r \$0_latency;
#X text 53 14 Audio Input;
#X obj 46 208 osc~ 0.3;
#X obj 46 248 *~ 1;
#X obj 46 271 +~ 100;
#X obj 79 249 r \$0_latency;
#X obj 46 313 vd~ \$0_first;
#X obj 24 334 mixer~ 2;
#X obj 239 67 inlet;
#X obj 239 126 s \$0_width;
#X obj 245 87 loadbang;
#X msg 245 106 1;
#X obj 67 228 r \$0_width;
#X obj 143 62 inlet;
#X obj 149 82 loadbang;
#X text 179 61 Frequency;
#X text 275 66 Depth/Width;
#X msg 149 101 0.3;
#X obj 143 121 s \$0_freq;
#X obj 46 187 r \$0_freq;
#X obj 24 374 outlet~;
#X text 73 375 Flanged Output;
#X text 104 144 Initial Delay;
#X text 124 313 Reading the delay line a second time \, at a modulated
rate;
#X text 99 206 The "modulator" frequency;
#X text 131 227 Times the width;
#X text 157 248 Plus the Latency so that it lines back up with the
original copy of the track;
#X msg 66 98 10;
#X obj 46 292 clip~ 1 10000;
#X text 130 285 Makes sure that the user doesn't read the delay tap
before it occurs;
#X text 95 58 Latency;
#X obj 24 354 *~ 0.5;
#X connect 0 0 1 0;
#X connect 2 0 13 0;
#X connect 3 0 33 0;
#X connect 4 0 5 0;
#X connect 6 0 2 0;
#X connect 8 0 9 0;
#X connect 9 0 10 0;
#X connect 10 0 34 0;
#X connect 11 0 10 1;
#X connect 12 0 13 1;
#X connect 13 0 37 0;
#X connect 14 0 15 0;
#X connect 16 0 17 0;
#X connect 17 0 15 0;
#X connect 18 0 9 1;
#X connect 19 0 24 0;
#X connect 20 0 23 0;
#X connect 23 0 24 0;
#X connect 25 0 8 0;
#X connect 33 0 5 0;
#X connect 34 0 12 0;
#X connect 37 0 26 0;
