#N canvas 0 50 566 409 10;
#X obj 215 122 phasor~ 0.4;
#X obj 215 143 *~ 300;
#X obj 215 164 +~ 300;
#X obj 215 265 glitch~;
#X obj 215 286 ezdac~;
#X obj 278 241 tgl 15 0 empty empty empty 17 7 0 10 -262144 -1 -1 0
1;
#X obj 215 195 phasor~;
#X obj 159 194 *~ 1.004;
#X obj 159 215 phasor~;
#X obj 215 216 -~ 0.5;
#X obj 159 236 -~ 0.5;
#X text 51 28 glitch~ takes an audio signal inlet \, and a toggle to
the right inlet. When the toggle is 0 \, the audio just passes straight
through. When the toggle is a 1 \, it puts the audio on a 30ms stutter.
;
#X connect 0 0 1 0;
#X connect 1 0 2 0;
#X connect 2 0 6 0;
#X connect 2 0 7 0;
#X connect 3 0 4 0;
#X connect 5 0 3 1;
#X connect 6 0 9 0;
#X connect 7 0 8 0;
#X connect 8 0 10 0;
#X connect 9 0 3 0;
#X connect 10 0 3 0;
