#N canvas 132 91 1252 525 10;
#X obj 351 302 cnv 15 108 56 empty empty midikeyboard 14 8 0 10 -88704
-1 0;
#X obj 47 25 key;
#X floatatom 47 47 5 0 0 0 - - -;
#X msg 47 90 48;
#X msg 77 90 50;
#X msg 107 90 52;
#X msg 137 90 53;
#X msg 166 90 55;
#X msg 193 90 57;
#X msg 220 90 59;
#X obj 47 68 sel 122 120 99 118 98 110 109 44;
#X msg 248 90 60;
#X msg 277 89 49;
#X msg 308 89 51;
#X msg 337 89 54;
#X msg 366 89 56;
#X msg 395 89 58;
#X obj 277 67 sel 115 100 103 104 106;
#X text 87 47 ZXCVBNM \, = C-C;
#X text 283 50 SD GHJ = C#-A#;
#X obj 285 150 keyup;
#X floatatom 285 171 5 0 0 0 - - -;
#X msg 285 214 48;
#X msg 315 214 50;
#X msg 345 214 52;
#X msg 375 214 53;
#X msg 404 214 55;
#X msg 431 214 57;
#X msg 458 214 59;
#X obj 285 192 sel 122 120 99 118 98 110 109 44;
#X msg 486 214 60;
#X msg 515 213 49;
#X msg 546 213 51;
#X msg 575 213 54;
#X msg 604 213 56;
#X msg 633 213 58;
#X obj 515 191 sel 115 100 103 104 106;
#X text 325 171 ZXCVBNM \, = C-C;
#X text 521 174 SD GHJ = C#-A#;
#X floatatom 427 44 5 0 0 0 - - -;
#X text 467 44 qwertyuiop = C-E;
#X msg 427 91 60;
#X msg 458 91 62;
#X msg 487 91 64;
#X msg 517 92 65;
#X msg 546 91 67;
#X msg 573 91 69;
#X msg 601 91 71;
#X msg 628 91 72;
#X obj 430 68 sel 113 119 101 114 116 121 117 105 111 112;
#X msg 656 91 74;
#X msg 684 91 76;
#X floatatom 662 164 5 0 0 0 - - -;
#X text 702 164 qwertyuiop = C-E;
#X msg 662 211 60;
#X msg 693 211 62;
#X msg 722 211 64;
#X msg 752 212 65;
#X msg 781 211 67;
#X msg 808 211 69;
#X msg 836 211 71;
#X msg 863 211 72;
#X obj 665 188 sel 113 119 101 114 116 121 117 105 111 112;
#X msg 891 211 74;
#X msg 919 211 76;
#X msg 724 93 61;
#X msg 755 93 63;
#X msg 784 93 66;
#X msg 813 93 68;
#X msg 842 93 70;
#X obj 724 71 sel 50 51 53 54 55 57 48;
#X msg 868 93 73;
#X msg 898 93 75;
#X msg 952 212 61;
#X msg 983 212 63;
#X msg 1012 212 66;
#X msg 1041 212 68;
#X msg 1070 212 70;
#X obj 952 190 sel 50 51 53 54 55 57 48;
#X msg 1096 212 73;
#X msg 1126 212 75;
#X obj 285 240 s \$0-off;
#X obj 141 322 r \$0-off;
#X obj 82 342 + 0;
#X obj 141 342 + 0;
#X obj 355 334 hradio 20 1 0 5 empty empty Octave 0 -8 0 10 -262111
-1 -1 2;
#X msg 141 372 \$1 0 1;
#X obj 354 262 loadbang;
#X msg 354 282 2;
#X obj 355 359 - 2;
#X obj 355 379 * 12;
#X obj 355 399 s \$0_octave;
#X obj 201 320 r \$0_octave;
#X obj 82 392 unpack f f f;
#X obj 82 412 outlet;
#X obj 124 413 outlet;
#X obj 166 414 outlet;
#X obj 580 258 inlet;
#X obj 561 296 clip 0 4;
#X msg 82 372 \$1 127 1;
#X text 730 54 2 through 0 = C#-D#;
#X text 958 173 2 through 0 = C#-D#;
#X obj 49 150 s \$0-on;
#X obj 711 297 r \$0-on;
#X obj 680 390 change;
#X obj 711 344 i;
#X obj 708 463 s \$0-on2;
#X obj 82 322 r \$0-on2;
#X obj 761 395 spigot;
#X obj 711 318 t b f;
#X msg 671 345 0;
#X obj 786 318 r \$0-off;
#X obj 771 252 loadbang;
#X msg 777 285 99999;
#X obj 680 414 t f b;
#X msg 786 339 1;
#X floatatom 971 318 5 0 0 0 - - -;
#X obj 971 338 t f f;
#X obj 971 359 print a;
#X obj 1038 363 print b;
#X obj 711 365 t f f;
#X connect 1 0 2 0;
#X connect 1 0 39 0;
#X connect 2 0 10 0;
#X connect 2 0 17 0;
#X connect 3 0 102 0;
#X connect 4 0 102 0;
#X connect 5 0 102 0;
#X connect 6 0 102 0;
#X connect 7 0 102 0;
#X connect 8 0 102 0;
#X connect 9 0 102 0;
#X connect 10 0 3 0;
#X connect 10 1 4 0;
#X connect 10 2 5 0;
#X connect 10 3 6 0;
#X connect 10 4 7 0;
#X connect 10 5 8 0;
#X connect 10 6 9 0;
#X connect 10 7 11 0;
#X connect 11 0 102 0;
#X connect 12 0 102 0;
#X connect 13 0 102 0;
#X connect 14 0 102 0;
#X connect 15 0 102 0;
#X connect 16 0 102 0;
#X connect 17 0 12 0;
#X connect 17 1 13 0;
#X connect 17 2 14 0;
#X connect 17 3 15 0;
#X connect 17 4 16 0;
#X connect 20 0 21 0;
#X connect 20 0 52 0;
#X connect 21 0 29 0;
#X connect 21 0 36 0;
#X connect 22 0 81 0;
#X connect 23 0 81 0;
#X connect 24 0 81 0;
#X connect 25 0 81 0;
#X connect 26 0 81 0;
#X connect 27 0 81 0;
#X connect 28 0 81 0;
#X connect 29 0 22 0;
#X connect 29 1 23 0;
#X connect 29 2 24 0;
#X connect 29 3 25 0;
#X connect 29 4 26 0;
#X connect 29 5 27 0;
#X connect 29 6 28 0;
#X connect 29 7 30 0;
#X connect 30 0 81 0;
#X connect 31 0 81 0;
#X connect 32 0 81 0;
#X connect 33 0 81 0;
#X connect 34 0 81 0;
#X connect 35 0 81 0;
#X connect 36 0 31 0;
#X connect 36 1 32 0;
#X connect 36 2 33 0;
#X connect 36 3 34 0;
#X connect 36 4 35 0;
#X connect 39 0 49 0;
#X connect 39 0 70 0;
#X connect 41 0 102 0;
#X connect 42 0 102 0;
#X connect 43 0 102 0;
#X connect 44 0 102 0;
#X connect 45 0 102 0;
#X connect 46 0 102 0;
#X connect 47 0 102 0;
#X connect 48 0 102 0;
#X connect 49 0 41 0;
#X connect 49 1 42 0;
#X connect 49 2 43 0;
#X connect 49 3 44 0;
#X connect 49 4 45 0;
#X connect 49 5 46 0;
#X connect 49 6 47 0;
#X connect 49 7 48 0;
#X connect 49 8 50 0;
#X connect 49 9 51 0;
#X connect 50 0 102 0;
#X connect 51 0 102 0;
#X connect 52 0 62 0;
#X connect 52 0 78 0;
#X connect 54 0 81 0;
#X connect 55 0 81 0;
#X connect 56 0 81 0;
#X connect 57 0 81 0;
#X connect 58 0 81 0;
#X connect 59 0 81 0;
#X connect 60 0 81 0;
#X connect 61 0 81 0;
#X connect 62 0 54 0;
#X connect 62 1 55 0;
#X connect 62 2 56 0;
#X connect 62 3 57 0;
#X connect 62 4 58 0;
#X connect 62 5 59 0;
#X connect 62 6 60 0;
#X connect 62 7 61 0;
#X connect 62 8 63 0;
#X connect 62 9 64 0;
#X connect 63 0 81 0;
#X connect 64 0 81 0;
#X connect 65 0 102 0;
#X connect 66 0 102 0;
#X connect 67 0 102 0;
#X connect 68 0 102 0;
#X connect 69 0 102 0;
#X connect 70 0 65 0;
#X connect 70 1 66 0;
#X connect 70 2 67 0;
#X connect 70 3 68 0;
#X connect 70 4 69 0;
#X connect 70 5 71 0;
#X connect 70 6 72 0;
#X connect 71 0 102 0;
#X connect 72 0 102 0;
#X connect 73 0 81 0;
#X connect 74 0 81 0;
#X connect 75 0 81 0;
#X connect 76 0 81 0;
#X connect 77 0 81 0;
#X connect 78 0 73 0;
#X connect 78 1 74 0;
#X connect 78 2 75 0;
#X connect 78 3 76 0;
#X connect 78 4 77 0;
#X connect 78 5 79 0;
#X connect 78 6 80 0;
#X connect 79 0 81 0;
#X connect 80 0 81 0;
#X connect 82 0 84 0;
#X connect 83 0 99 0;
#X connect 84 0 86 0;
#X connect 85 0 89 0;
#X connect 86 0 93 0;
#X connect 87 0 88 0;
#X connect 88 0 85 0;
#X connect 89 0 90 0;
#X connect 90 0 91 0;
#X connect 92 0 83 1;
#X connect 92 0 84 1;
#X connect 93 0 94 0;
#X connect 93 1 95 0;
#X connect 93 2 96 0;
#X connect 97 0 98 0;
#X connect 98 0 85 0;
#X connect 99 0 93 0;
#X connect 103 0 109 0;
#X connect 104 0 114 0;
#X connect 105 0 120 0;
#X connect 107 0 83 0;
#X connect 108 0 106 0;
#X connect 109 0 110 0;
#X connect 109 1 105 0;
#X connect 110 0 108 1;
#X connect 111 0 115 0;
#X connect 112 0 113 0;
#X connect 112 0 110 0;
#X connect 113 0 105 1;
#X connect 114 0 106 0;
#X connect 114 1 110 0;
#X connect 115 0 108 1;
#X connect 116 0 117 0;
#X connect 117 0 118 0;
#X connect 117 1 119 0;
#X connect 120 0 108 0;
#X connect 120 1 104 0;
#X coords 0 -1 1 1 110 60 1 350 300;
