#N canvas -8 -8 1370 729 10;
#X obj 101 201 cnv 15 130 44 empty empty empty 20 12 0 14 -233017 -66577
0;
#X obj 134 62 inlet;
#X obj 134 85 mod 12;
#X obj 44 168 == 0;
#N canvas 0 50 450 528 stoggle 0;
#X obj 151 80 inlet;
#X obj 101 201 tgl 14 0 \$0_foo \$0_unused empty 17 7 0 10 -262144
-262144 -262144 0 1;
#X msg 152 126 color 0 0 0;
#X obj 151 103 sel 0 1;
#X msg 236 132 color 18 18 18;
#X connect 0 0 3 0;
#X connect 2 0 1 0;
#X connect 3 0 2 0;
#X connect 3 1 4 0;
#X connect 4 0 1 0;
#X coords 0 -1 1 1 16 16 2 100 200;
#X restore 107 223 pd stoggle;
#N canvas 0 50 450 528 stoggle 0;
#X obj 151 80 inlet;
#X obj 101 201 tgl 14 0 \$0_foo \$0_unused empty 17 7 0 10 -128992
-128992 -128992 0 1;
#X obj 151 103 sel 0 1;
#X msg 236 132 color 18 18 18;
#X msg 152 126 color 11 11 11;
#X connect 0 0 2 0;
#X connect 2 0 4 0;
#X connect 2 1 3 0;
#X connect 3 0 1 0;
#X connect 4 0 1 0;
#X coords 0 -1 1 1 16 16 2 100 200;
#X restore 116 206 pd stoggle;
#X obj 74 168 == 1;
#X obj 104 168 == 2;
#X obj 134 168 == 3;
#X obj 164 168 == 4;
#X obj 194 168 == 5;
#X obj 224 168 == 6;
#X obj 254 168 == 7;
#X obj 284 168 == 8;
#X obj 314 168 == 9;
#X obj 344 168 == 10;
#X obj 380 168 == 11;
#X obj 204 71 inlet;
#X obj 134 108 f;
#X obj 245 74 loadbang;
#N canvas 0 50 450 528 stoggle 0;
#X obj 151 80 inlet;
#X obj 101 201 tgl 14 0 \$0_foo \$0_unused empty 17 7 0 10 -262144
-262144 -262144 0 1;
#X msg 152 126 color 0 0 0;
#X obj 151 103 sel 0 1;
#X msg 236 132 color 18 18 18;
#X connect 0 0 3 0;
#X connect 2 0 1 0;
#X connect 3 0 2 0;
#X connect 3 1 4 0;
#X connect 4 0 1 0;
#X coords 0 -1 1 1 16 16 2 100 200;
#X restore 124 223 pd stoggle;
#N canvas 0 50 450 528 stoggle 0;
#X obj 151 80 inlet;
#X obj 101 201 tgl 14 0 \$0_foo \$0_unused empty 17 7 0 10 -128992
-128992 -128992 0 1;
#X obj 151 103 sel 0 1;
#X msg 236 132 color 18 18 18;
#X msg 152 126 color 11 11 11;
#X connect 0 0 2 0;
#X connect 2 0 4 0;
#X connect 2 1 3 0;
#X connect 3 0 1 0;
#X connect 4 0 1 0;
#X coords 0 -1 1 1 16 16 2 100 200;
#X restore 133 206 pd stoggle;
#N canvas 0 50 450 528 stoggle 0;
#X obj 151 80 inlet;
#X obj 101 201 tgl 14 0 \$0_foo \$0_unused empty 17 7 0 10 -262144
-262144 -262144 0 1;
#X msg 152 126 color 0 0 0;
#X obj 151 103 sel 0 1;
#X msg 236 132 color 18 18 18;
#X connect 0 0 3 0;
#X connect 2 0 1 0;
#X connect 3 0 2 0;
#X connect 3 1 4 0;
#X connect 4 0 1 0;
#X coords 0 -1 1 1 16 16 2 100 200;
#X restore 158 223 pd stoggle;
#N canvas 0 50 450 528 stoggle 0;
#X obj 151 80 inlet;
#X obj 101 201 tgl 14 0 \$0_foo \$0_unused empty 17 7 0 10 -128992
-128992 -128992 0 1;
#X obj 151 103 sel 0 1;
#X msg 236 132 color 18 18 18;
#X msg 152 126 color 11 11 11;
#X connect 0 0 2 0;
#X connect 2 0 4 0;
#X connect 2 1 3 0;
#X connect 3 0 1 0;
#X connect 4 0 1 0;
#X coords 0 -1 1 1 16 16 2 100 200;
#X restore 167 206 pd stoggle;
#N canvas 0 50 450 528 stoggle 0;
#X obj 151 80 inlet;
#X obj 101 201 tgl 14 0 \$0_foo \$0_unused empty 17 7 0 10 -262144
-262144 -262144 0 1;
#X msg 152 126 color 0 0 0;
#X obj 151 103 sel 0 1;
#X msg 236 132 color 18 18 18;
#X connect 0 0 3 0;
#X connect 2 0 1 0;
#X connect 3 0 2 0;
#X connect 3 1 4 0;
#X connect 4 0 1 0;
#X coords 0 -1 1 1 16 16 2 100 200;
#X restore 141 223 pd stoggle;
#N canvas 0 50 450 528 stoggle 0;
#X obj 151 80 inlet;
#X obj 101 201 tgl 14 0 \$0_foo \$0_unused empty 17 7 0 10 -262144
-262144 -262144 0 1;
#X msg 152 126 color 0 0 0;
#X obj 151 103 sel 0 1;
#X msg 236 132 color 18 18 18;
#X connect 0 0 3 0;
#X connect 2 0 1 0;
#X connect 3 0 2 0;
#X connect 3 1 4 0;
#X connect 4 0 1 0;
#X coords 0 -1 1 1 16 16 2 100 200;
#X restore 175 223 pd stoggle;
#N canvas 0 50 450 528 stoggle 0;
#X obj 151 80 inlet;
#X obj 101 201 tgl 14 0 \$0_foo \$0_unused empty 17 7 0 10 -128992
-128992 -128992 0 1;
#X obj 151 103 sel 0 1;
#X msg 236 132 color 18 18 18;
#X msg 152 126 color 11 11 11;
#X connect 0 0 2 0;
#X connect 2 0 4 0;
#X connect 2 1 3 0;
#X connect 3 0 1 0;
#X connect 4 0 1 0;
#X coords 0 -1 1 1 16 16 2 100 200;
#X restore 184 206 pd stoggle;
#N canvas 0 50 450 528 stoggle 0;
#X obj 151 80 inlet;
#X obj 101 201 tgl 14 0 \$0_foo \$0_unused empty 17 7 0 10 -262144
-262144 -262144 0 1;
#X msg 152 126 color 0 0 0;
#X obj 151 103 sel 0 1;
#X msg 236 132 color 18 18 18;
#X connect 0 0 3 0;
#X connect 2 0 1 0;
#X connect 3 0 2 0;
#X connect 3 1 4 0;
#X connect 4 0 1 0;
#X coords 0 -1 1 1 16 16 2 100 200;
#X restore 192 223 pd stoggle;
#N canvas 0 50 450 528 stoggle 0;
#X obj 151 80 inlet;
#X obj 101 201 tgl 14 0 \$0_foo \$0_unused empty 17 7 0 10 -128992
-128992 -128992 0 1;
#X obj 151 103 sel 0 1;
#X msg 236 132 color 18 18 18;
#X msg 152 126 color 11 11 11;
#X connect 0 0 2 0;
#X connect 2 0 4 0;
#X connect 2 1 3 0;
#X connect 3 0 1 0;
#X connect 4 0 1 0;
#X coords 0 -1 1 1 16 16 2 100 200;
#X restore 201 206 pd stoggle;
#N canvas 0 50 450 528 stoggle 0;
#X obj 151 80 inlet;
#X obj 101 201 tgl 14 0 \$0_foo \$0_unused empty 17 7 0 10 -262144
-262144 -262144 0 1;
#X msg 152 126 color 0 0 0;
#X obj 151 103 sel 0 1;
#X msg 236 132 color 18 18 18;
#X connect 0 0 3 0;
#X connect 2 0 1 0;
#X connect 3 0 2 0;
#X connect 3 1 4 0;
#X connect 4 0 1 0;
#X coords 0 -1 1 1 16 16 2 100 200;
#X restore 209 223 pd stoggle;
#X msg 204 94 13;
#X connect 1 0 2 0;
#X connect 2 0 18 0;
#X connect 3 0 4 0;
#X connect 6 0 5 0;
#X connect 7 0 20 0;
#X connect 8 0 21 0;
#X connect 9 0 24 0;
#X connect 10 0 22 0;
#X connect 11 0 23 0;
#X connect 12 0 25 0;
#X connect 13 0 26 0;
#X connect 14 0 27 0;
#X connect 15 0 28 0;
#X connect 16 0 29 0;
#X connect 17 0 30 0;
#X connect 18 0 3 0;
#X connect 18 0 6 0;
#X connect 18 0 7 0;
#X connect 18 0 8 0;
#X connect 18 0 9 0;
#X connect 18 0 10 0;
#X connect 18 0 11 0;
#X connect 18 0 12 0;
#X connect 18 0 13 0;
#X connect 18 0 14 0;
#X connect 18 0 15 0;
#X connect 18 0 16 0;
#X connect 19 0 30 0;
#X connect 30 0 18 0;
#X coords 0 -1 1 1 132 46 2 100 200;
