#N canvas -8 -8 1370 729 10;
#X obj 101 501 cnv 15 130 46 empty empty empty 20 12 0 14 -233017 -66577
0;
#X obj 106 122 inlet;
#N canvas 0 50 450 528 stoggle 0;
#X obj 151 80 inlet;
#X obj 101 201 tgl 14 0 \$0_foo \$0_unused empty 17 7 0 10 -262144
-262144 -262144 0 1;
#X msg 152 126 color 0 0 0;
#X obj 151 103 sel 0 1;
#X msg 236 132 color 18 18 18;
#X connect 0 0 3 0;
#X connect 2 0 1 0;
#X connect 3 0 2 0;
#X connect 3 1 4 0;
#X connect 4 0 1 0;
#X coords 0 -1 1 1 16 16 2 100 200;
#X restore 107 525 pd stoggle;
#N canvas 0 50 450 528 stoggle 0;
#X obj 151 80 inlet;
#X obj 101 201 tgl 14 0 \$0_foo \$0_unused empty 17 7 0 10 -128992
-128992 -128992 0 1;
#X obj 151 103 sel 0 1;
#X msg 236 132 color 18 18 18;
#X msg 152 126 color 11 11 11;
#X connect 0 0 2 0;
#X connect 2 0 4 0;
#X connect 2 1 3 0;
#X connect 3 0 1 0;
#X connect 4 0 1 0;
#X coords 0 -1 1 1 16 16 2 100 200;
#X restore 116 508 pd stoggle;
#N canvas 0 50 450 528 stoggle 0;
#X obj 151 80 inlet;
#X obj 101 201 tgl 14 0 \$0_foo \$0_unused empty 17 7 0 10 -262144
-262144 -262144 0 1;
#X msg 152 126 color 0 0 0;
#X obj 151 103 sel 0 1;
#X msg 236 132 color 18 18 18;
#X connect 0 0 3 0;
#X connect 2 0 1 0;
#X connect 3 0 2 0;
#X connect 3 1 4 0;
#X connect 4 0 1 0;
#X coords 0 -1 1 1 16 16 2 100 200;
#X restore 124 525 pd stoggle;
#N canvas 0 50 450 528 stoggle 0;
#X obj 151 80 inlet;
#X obj 101 201 tgl 14 0 \$0_foo \$0_unused empty 17 7 0 10 -128992
-128992 -128992 0 1;
#X obj 151 103 sel 0 1;
#X msg 236 132 color 18 18 18;
#X msg 152 126 color 11 11 11;
#X connect 0 0 2 0;
#X connect 2 0 4 0;
#X connect 2 1 3 0;
#X connect 3 0 1 0;
#X connect 4 0 1 0;
#X coords 0 -1 1 1 16 16 2 100 200;
#X restore 133 508 pd stoggle;
#N canvas 0 50 450 528 stoggle 0;
#X obj 151 80 inlet;
#X obj 101 201 tgl 14 0 \$0_foo \$0_unused empty 17 7 0 10 -262144
-262144 -262144 0 1;
#X msg 152 126 color 0 0 0;
#X obj 151 103 sel 0 1;
#X msg 236 132 color 18 18 18;
#X connect 0 0 3 0;
#X connect 2 0 1 0;
#X connect 3 0 2 0;
#X connect 3 1 4 0;
#X connect 4 0 1 0;
#X coords 0 -1 1 1 16 16 2 100 200;
#X restore 158 525 pd stoggle;
#N canvas 0 50 450 528 stoggle 0;
#X obj 151 80 inlet;
#X obj 101 201 tgl 14 0 \$0_foo \$0_unused empty 17 7 0 10 -128992
-128992 -128992 0 1;
#X obj 151 103 sel 0 1;
#X msg 236 132 color 18 18 18;
#X msg 152 126 color 11 11 11;
#X connect 0 0 2 0;
#X connect 2 0 4 0;
#X connect 2 1 3 0;
#X connect 3 0 1 0;
#X connect 4 0 1 0;
#X coords 0 -1 1 1 16 16 2 100 200;
#X restore 167 508 pd stoggle;
#N canvas 0 50 450 528 stoggle 0;
#X obj 151 80 inlet;
#X obj 101 201 tgl 14 0 \$0_foo \$0_unused empty 17 7 0 10 -262144
-262144 -262144 0 1;
#X msg 152 126 color 0 0 0;
#X obj 151 103 sel 0 1;
#X msg 236 132 color 18 18 18;
#X connect 0 0 3 0;
#X connect 2 0 1 0;
#X connect 3 0 2 0;
#X connect 3 1 4 0;
#X connect 4 0 1 0;
#X coords 0 -1 1 1 16 16 2 100 200;
#X restore 141 525 pd stoggle;
#N canvas 0 50 450 528 stoggle 0;
#X obj 151 80 inlet;
#X obj 101 201 tgl 14 0 \$0_foo \$0_unused empty 17 7 0 10 -262144
-262144 -262144 0 1;
#X msg 152 126 color 0 0 0;
#X obj 151 103 sel 0 1;
#X msg 236 132 color 18 18 18;
#X connect 0 0 3 0;
#X connect 2 0 1 0;
#X connect 3 0 2 0;
#X connect 3 1 4 0;
#X connect 4 0 1 0;
#X coords 0 -1 1 1 16 16 2 100 200;
#X restore 175 525 pd stoggle;
#N canvas 0 50 450 528 stoggle 0;
#X obj 151 80 inlet;
#X obj 101 201 tgl 14 0 \$0_foo \$0_unused empty 17 7 0 10 -128992
-128992 -128992 0 1;
#X obj 151 103 sel 0 1;
#X msg 236 132 color 18 18 18;
#X msg 152 126 color 11 11 11;
#X connect 0 0 2 0;
#X connect 2 0 4 0;
#X connect 2 1 3 0;
#X connect 3 0 1 0;
#X connect 4 0 1 0;
#X coords 0 -1 1 1 16 16 2 100 200;
#X restore 184 508 pd stoggle;
#N canvas 0 50 450 528 stoggle 0;
#X obj 151 80 inlet;
#X obj 101 201 tgl 14 0 \$0_foo \$0_unused empty 17 7 0 10 -262144
-262144 -262144 0 1;
#X msg 152 126 color 0 0 0;
#X obj 151 103 sel 0 1;
#X msg 236 132 color 18 18 18;
#X connect 0 0 3 0;
#X connect 2 0 1 0;
#X connect 3 0 2 0;
#X connect 3 1 4 0;
#X connect 4 0 1 0;
#X coords 0 -1 1 1 16 16 2 100 200;
#X restore 192 525 pd stoggle;
#N canvas 0 50 450 528 stoggle 0;
#X obj 151 80 inlet;
#X obj 101 201 tgl 14 0 \$0_foo \$0_unused empty 17 7 0 10 -128992
-128992 -128992 0 1;
#X obj 151 103 sel 0 1;
#X msg 236 132 color 18 18 18;
#X msg 152 126 color 11 11 11;
#X connect 0 0 2 0;
#X connect 2 0 4 0;
#X connect 2 1 3 0;
#X connect 3 0 1 0;
#X connect 4 0 1 0;
#X coords 0 -1 1 1 16 16 2 100 200;
#X restore 201 508 pd stoggle;
#N canvas 0 50 450 528 stoggle 0;
#X obj 151 80 inlet;
#X obj 101 201 tgl 14 0 \$0_foo \$0_unused empty 17 7 0 10 -262144
-262144 -262144 0 1;
#X msg 152 126 color 0 0 0;
#X obj 151 103 sel 0 1;
#X msg 236 132 color 18 18 18;
#X connect 0 0 3 0;
#X connect 2 0 1 0;
#X connect 3 0 2 0;
#X connect 3 1 4 0;
#X connect 4 0 1 0;
#X coords 0 -1 1 1 16 16 2 100 200;
#X restore 209 525 pd stoggle;
#X obj 106 172 pack f f;
#X obj 106 140 expr $i1%12 \; $i2;
#X obj 106 203 route 0 1 2 3 4 5 6 7 8 9 10 11;
#X obj 64 238 != 0;
#X obj 94 238 != 0;
#X obj 124 238 != 0;
#X obj 154 238 != 0;
#X obj 184 238 != 0;
#X obj 214 238 != 0;
#X obj 244 238 != 0;
#X obj 274 238 != 0;
#X obj 304 238 != 0;
#X obj 334 238 != 0;
#X obj 364 238 != 0;
#X obj 394 238 != 0;
#X connect 1 0 15 0;
#X connect 14 0 16 0;
#X connect 15 0 14 0;
#X connect 15 1 14 1;
#X connect 16 0 17 0;
#X connect 16 1 18 0;
#X connect 16 2 19 0;
#X connect 16 3 20 0;
#X connect 16 4 21 0;
#X connect 16 5 22 0;
#X connect 16 6 23 0;
#X connect 16 7 24 0;
#X connect 16 8 25 0;
#X connect 16 9 26 0;
#X connect 16 10 27 0;
#X connect 16 11 28 0;
#X connect 17 0 2 0;
#X connect 18 0 3 0;
#X connect 19 0 4 0;
#X connect 20 0 5 0;
#X connect 21 0 8 0;
#X connect 22 0 6 0;
#X connect 23 0 7 0;
#X connect 24 0 9 0;
#X connect 25 0 10 0;
#X connect 26 0 11 0;
#X connect 27 0 12 0;
#X connect 28 0 13 0;
#X coords 0 -1 1 1 132 48 2 100 500;
