#N canvas 0 50 153 243 10;
#X obj 24 14 inlet;
#X obj 24 34 random \$1;
#X obj 24 54 t f f;
#X floatatom 24 74 5 0 0 0 - - -;
#X floatatom 60 74 5 0 0 0 - - -;
#X obj 24 113 ==;
#X obj 24 133 sel 0;
#X obj 24 151 bng 15 250 50 0 empty empty empty 17 7 0 10 -262144 -1
-1;
#X obj 51 151 bng 15 250 50 0 empty empty empty 17 7 0 10 -262144 -1
-1;
#X obj 24 171 f;
#X obj 60 93 t f f;
#X obj 24 191 outlet;
#X obj 81 178 s;
#X connect 0 0 1 0;
#X connect 1 0 2 0;
#X connect 2 0 3 0;
#X connect 2 1 4 0;
#X connect 3 0 5 0;
#X connect 4 0 10 0;
#X connect 5 0 6 0;
#X connect 6 0 7 0;
#X connect 6 1 8 0;
#X connect 7 0 9 0;
#X connect 9 0 11 0;
#X connect 10 0 5 1;
#X connect 10 1 9 1;
