#N canvas 615 54 210 282 10;
#X obj 12 11 inlet;
#X obj 12 33 t b b b;
#X obj 82 81 delay 10;
#X msg 82 103 0;
#X obj 82 124 pack 0 \$1;
#X obj 22 183 line~;
#X msg 11 103 0;
#X msg 43 103 1 10;
#X obj 22 239 outlet~;
#X obj 22 210 *~ \$2;
#X connect 0 0 1 0;
#X connect 1 0 2 0;
#X connect 1 1 7 0;
#X connect 1 2 6 0;
#X connect 2 0 3 0;
#X connect 3 0 4 0;
#X connect 4 0 5 0;
#X connect 5 0 9 0;
#X connect 6 0 5 0;
#X connect 7 0 5 0;
#X connect 9 0 8 0;
