#N canvas 188 0 958 658 10;
#X obj 102 102 bng 15 250 50 0 empty empty Save_To 17 7 0 10 -262144
-1 -1;
#X obj 102 119 bng 15 250 50 0 empty empty Start_Record 17 7 0 10 -262144
-1 -1;
#X obj 102 136 bng 15 250 50 0 empty empty Stop_Record 17 7 0 10 -262144
-1 -1;
#X msg 45 167 start;
#X msg 86 168 stop;
#X obj 32 121 savepanel;
#X msg 32 144 open \$1;
#X obj 90 195 inlet~;
#X obj 100 231 outlet~;
#X obj 143 198 inlet~;
#X obj 32 223 writesf~ 2;
#X obj 154 235 outlet~;
#X connect 0 0 5 0;
#X connect 1 0 3 0;
#X connect 2 0 4 0;
#X connect 3 0 10 0;
#X connect 4 0 10 0;
#X connect 5 0 6 0;
#X connect 6 0 10 0;
#X connect 7 0 8 0;
#X connect 7 0 10 0;
#X connect 9 0 10 1;
#X connect 9 0 11 0;
#X coords 0 -1 1 1 95 53 2 100 100;
