#N canvas 188 0 958 658 10;
#X obj 101 102 cnv 15 93 70 empty empty record_stereo~ 5 8 0 10 -233017
-1 0;
#X obj 102 122 bng 15 250 50 0 empty empty Save_To 17 7 0 10 -262144
-1 -1;
#X obj 102 139 bng 15 250 50 0 empty empty Start_Record 17 7 0 10 -262144
-1 -1;
#X obj 102 156 bng 15 250 50 0 empty empty Stop_Record 17 7 0 10 -262144
-1 -1;
#X msg 45 187 start;
#X msg 86 188 stop;
#X obj 32 141 savepanel;
#X msg 32 164 open \$1;
#X obj 90 215 inlet~;
#X obj 100 251 outlet~;
#X obj 143 218 inlet~;
#X obj 32 243 writesf~ 2;
#X obj 154 255 outlet~;
#X obj 247 252 inlet;
#X obj 288 259 inlet;
#X obj 331 264 inlet;
#X connect 1 0 6 0;
#X connect 2 0 4 0;
#X connect 3 0 5 0;
#X connect 4 0 11 0;
#X connect 5 0 11 0;
#X connect 6 0 7 0;
#X connect 7 0 11 0;
#X connect 8 0 9 0;
#X connect 8 0 11 0;
#X connect 10 0 11 1;
#X connect 10 0 12 0;
#X connect 13 0 1 0;
#X connect 14 0 2 0;
#X connect 15 0 3 0;
#X coords 0 -1 1 1 95 74 2 100 100;
