#N canvas 442 179 450 300 10;
#X obj 23 25 inlet~;
#X obj 67 35 inlet;
#X obj 67 57 s \$0_sr;
#X obj 106 14 loadbang;
#X msg 106 36 20000;
#X obj 23 127 samphold~;
#X obj 74 102 phasor~ \$1;
#X obj 74 81 r \$0_sr;
#X obj 23 149 outlet~;
#X connect 0 0 5 0;
#X connect 1 0 2 0;
#X connect 3 0 4 0;
#X connect 4 0 2 0;
#X connect 5 0 8 0;
#X connect 6 0 5 1;
#X connect 7 0 6 0;
