#N canvas 0 50 450 439 10;
#X obj 63 146 noise~;
#X obj 21 220 stereoscope~;
#X obj 44 182 *~;
#X obj 73 183 *~;
#X obj 147 147 cos~;
#X obj 183 147 cos~;
#X obj 204 103 +~ 0.25;
#X obj 35 322 ezstereo~;
#X obj 204 82 phasor~ 0.6;
#X text 44 24 stereoscope~ is a stereo oscilloscope. It takes 2 inlets
for the audio signal \, and 2 outlets are simply throughput to record
or continue processing.;
#X text 255 355 David Sprinkle;
#X connect 0 0 2 0;
#X connect 0 0 3 0;
#X connect 1 0 7 0;
#X connect 1 1 7 1;
#X connect 2 0 1 0;
#X connect 3 0 1 1;
#X connect 4 0 2 1;
#X connect 5 0 3 1;
#X connect 6 0 5 0;
#X connect 8 0 4 0;
#X connect 8 0 6 0;
