#N canvas 227 189 450 300 10;
#X obj 126 35 noise~;
#X obj 126 57 samphold~;
#X obj 182 27 phasor~ 1000;
#X obj 40 80 *~;
#X obj 169 204 *~;
#X obj 40 101 lop~ 10000;
#X obj 40 58 phasor~ 5000;
#X obj 40 123 hip~ 5000;
#X obj 185 84 inlet;
#X obj 185 106 t b;
#X msg 185 128 1 \, 0 300;
#X obj 185 150 line~;
#X obj 185 172 *~;
#X obj 171 230 outlet~;
#X connect 0 0 1 0;
#X connect 1 0 3 1;
#X connect 2 0 1 1;
#X connect 3 0 5 0;
#X connect 4 0 13 0;
#X connect 5 0 7 0;
#X connect 6 0 3 0;
#X connect 7 0 4 0;
#X connect 8 0 9 0;
#X connect 9 0 10 0;
#X connect 10 0 11 0;
#X connect 11 0 12 0;
#X connect 11 0 12 1;
#X connect 12 0 4 1;
